<svg width="25" height="18" viewBox="0 0 25 18" fill="none" xmlns="http://www.w3.org/2000/svg">
<path d="M24.0438 16.876L22.0395 0.876C22.0092 0.634145 21.8915 0.411655 21.7083 0.250344C21.5252 0.0890332 21.2894 7.85268e-06 21.0451 0H17.0365V4H15.0322V0H9.0193V4H7.015V0H3.00639C2.76213 7.85268e-06 2.52628 0.0890332 2.34317 0.250344C2.16006 0.411655 2.04229 0.634145 2.012 0.876L0.00769615 16.876C-0.00829673 17.0164 0.00541426 17.1586 0.0479428 17.2934C0.0904714 17.4282 0.160871 17.5525 0.254591 17.6585C0.348311 17.7644 0.463265 17.8496 0.592023 17.9084C0.720782 17.9672 0.860478 17.9984 1.00208 18H23.0494C23.191 17.9984 23.3307 17.9672 23.4595 17.9084C23.5882 17.8496 23.7032 17.7644 23.7969 17.6585C23.8906 17.5525 23.961 17.4282 24.0036 17.2934C24.0461 17.1586 24.0598 17.0164 24.0438 16.876ZM16.0344 9.75C15.6091 11.2351 12.0258 13.75 12.0258 13.75C12.0258 13.75 8.44306 11.2351 8.01715 9.75C7.26629 7.12775 10.524 6.2515 12.0258 7.75C13.5275 6.2515 16.7852 7.12775 16.0344 9.75Z" fill="#0C1014"/>
</svg>
