<svg width="11" height="6" viewBox="0 0 11 6" fill="none" xmlns="http://www.w3.org/2000/svg">
<path d="M2.01944 5C2.01944 4.20435 2.33619 3.44129 2.90001 2.87868C3.46383 2.31607 4.22854 2 5.0259 2C5.82326 2 6.58797 2.31607 7.15179 2.87868C7.71561 3.44129 8.03236 4.20435 8.03236 5V6H10.0367V5C10.0367 3.67391 9.50874 2.40214 8.56904 1.46446C7.62934 0.52678 6.35484 -3.8147e-06 5.0259 -3.8147e-06C3.69696 -3.8147e-06 2.42246 0.52678 1.48275 1.46446C0.543055 2.40214 0.0151367 3.67391 0.0151367 5V6H2.01944V5Z" fill="#0C1014"/>
</svg>
